<svg width="68" height="68" viewBox="0 0 68 68" fill="none" xmlns="http://www.w3.org/2000/svg">
<path d="M0 34C0 15.2223 15.2223 0 34 0C52.7777 0 68 15.2223 68 34C68 52.7777 52.7777 68 34 68C15.2223 68 0 52.7777 0 34Z" fill="#F29F05"/>
<path d="M24 32L32 14C33.5913 14 35.1174 14.6321 36.2426 15.7574C37.3679 16.8826 38 18.4087 38 20V28H49.32C49.8998 27.9934 50.4741 28.113 51.0031 28.3504C51.5322 28.5879 52.0032 28.9375 52.3837 29.375C52.7642 29.8126 53.045 30.3276 53.2067 30.8845C53.3683 31.4414 53.407 32.0267 53.32 32.6L50.56 50.6C50.4154 51.5538 49.9309 52.4232 49.1958 53.048C48.4608 53.6728 47.5247 54.0109 46.56 54H24M24 32V54M24 32H18C16.9391 32 15.9217 32.4214 15.1716 33.1716C14.4214 33.9217 14 34.9391 14 36V50C14 51.0609 14.4214 52.0783 15.1716 52.8284C15.9217 53.5786 16.9391 54 18 54H24" stroke="white" stroke-width="4" stroke-linecap="round" stroke-linejoin="round"/>
</svg>
