<svg width="68" height="68" viewBox="0 0 68 68" fill="none" xmlns="http://www.w3.org/2000/svg">
<path d="M0 34C0 15.2223 15.2223 0 34 0C52.7777 0 68 15.2223 68 34C68 52.7777 52.7777 68 34 68C15.2223 68 0 52.7777 0 34Z" fill="#F29F05"/>
<path d="M54 32.16V34C53.9975 38.3128 52.601 42.5093 50.0187 45.9636C47.4363 49.4179 43.8066 51.9449 39.6707 53.1678C35.5349 54.3906 31.1145 54.2438 27.0689 52.7491C23.0234 51.2545 19.5693 48.4922 17.2219 44.8741C14.8745 41.256 13.7596 36.9761 14.0434 32.6726C14.3271 28.3691 15.9944 24.2726 18.7966 20.9941C21.5987 17.7156 25.3856 15.4307 29.5924 14.4803C33.7992 13.5298 38.2005 13.9646 42.14 15.72M54 18L34 38.02L28 32.02" stroke="white" stroke-width="4" stroke-linecap="round" stroke-linejoin="round"/>
</svg>
