<svg width="68" height="68" viewBox="0 0 68 68" fill="none" xmlns="http://www.w3.org/2000/svg">
<rect width="68" height="68" rx="34" fill="#F29F05"/>
<path d="M38 14H22C20.9391 14 19.9217 14.4214 19.1716 15.1716C18.4214 15.9217 18 16.9391 18 18V50C18 51.0609 18.4214 52.0783 19.1716 52.8284C19.9217 53.5786 20.9391 54 22 54H46C47.0609 54 48.0783 53.5786 48.8284 52.8284C49.5786 52.0783 50 51.0609 50 50V26M38 14L50 26M38 14V26H50M42 36H26M42 44H26M30 28H26" stroke="white" stroke-width="4" stroke-linecap="round" stroke-linejoin="round"/>
</svg>
