<svg width="68" height="68" viewBox="0 0 68 68" fill="none" xmlns="http://www.w3.org/2000/svg">
<rect width="68" height="68" rx="34" fill="#F29F05"/>
<path d="M34 12V56M44 20H29C27.1435 20 25.363 20.7375 24.0503 22.0503C22.7375 23.363 22 25.1435 22 27C22 28.8565 22.7375 30.637 24.0503 31.9497C25.363 33.2625 27.1435 34 29 34H39C40.8565 34 42.637 34.7375 43.9497 36.0503C45.2625 37.363 46 39.1435 46 41C46 42.8565 45.2625 44.637 43.9497 45.9497C42.637 47.2625 40.8565 48 39 48H22" stroke="white" stroke-width="4" stroke-linecap="round" stroke-linejoin="round"/>
</svg>
