<svg width="69" height="68" viewBox="0 0 69 68" fill="none" xmlns="http://www.w3.org/2000/svg">
<rect x="0.5" width="68" height="68" rx="34" fill="#528C26"/>
<path d="M34.5 12V56M44.5 20H29.5C27.6435 20 25.863 20.7375 24.5503 22.0503C23.2375 23.363 22.5 25.1435 22.5 27C22.5 28.8565 23.2375 30.637 24.5503 31.9497C25.863 33.2625 27.6435 34 29.5 34H39.5C41.3565 34 43.137 34.7375 44.4497 36.0503C45.7625 37.363 46.5 39.1435 46.5 41C46.5 42.8565 45.7625 44.637 44.4497 45.9497C43.137 47.2625 41.3565 48 39.5 48H22.5" stroke="#1E1E1E" stroke-width="4" stroke-linecap="round" stroke-linejoin="round"/>
</svg>
