<svg width="68" height="68" viewBox="0 0 68 68" fill="none" xmlns="http://www.w3.org/2000/svg">
<path d="M0 34C0 15.2223 15.2223 0 34 0V0C52.7777 0 68 15.2223 68 34V34C68 52.7777 52.7777 68 34 68V68C15.2223 68 0 52.7777 0 34V34Z" fill="#528C26"/>
<g clip-path="url(#clip0_14_297)">
<path d="M26.0001 48V52M26.0001 36V40M42.0001 48V52M42.0001 36V40M34.0001 52V56M34.0001 40V44M50.0001 43.16C52.1026 42.2392 53.8243 40.6231 54.8762 38.5831C55.9282 36.543 56.2463 34.2032 55.7773 31.9563C55.3082 29.7095 54.0805 27.6924 52.3002 26.2436C50.5199 24.7949 48.2954 24.0027 46.0001 24H43.4801C42.8461 21.545 41.6378 19.2759 39.9547 17.3796C38.2716 15.4833 36.1619 14.0141 33.7996 13.0932C31.4373 12.1723 28.8899 11.826 26.3674 12.0829C23.845 12.3397 21.4197 13.1924 19.2915 14.5705C17.1632 15.9487 15.393 17.8129 14.1267 20.0096C12.8604 22.2062 12.1342 24.6723 12.0081 27.2047C11.882 29.737 12.3595 32.2631 13.4013 34.5747C14.4431 36.8863 16.0193 38.9172 18.0001 40.5" stroke="#1E1E1E" stroke-width="4" stroke-linecap="round" stroke-linejoin="round"/>
</g>
<defs>
<clipPath id="clip0_14_297">
<rect width="48" height="48" fill="white" transform="translate(10 10)"/>
</clipPath>
</defs>
</svg>
