<svg width="68" height="68" viewBox="0 0 68 68" fill="none" xmlns="http://www.w3.org/2000/svg">
<path d="M0 34C0 15.2223 15.2223 0 34 0V0C52.7777 0 68 15.2223 68 34V34C68 52.7777 52.7777 68 34 68V68C15.2223 68 0 52.7777 0 34V34Z" fill="#528C26"/>
<g clip-path="url(#clip0_14_346)">
<path d="M38 39.52V17C38 15.6739 37.4732 14.4021 36.5355 13.4645C35.5979 12.5268 34.3261 12 33 12C31.6739 12 30.4021 12.5268 29.4645 13.4645C28.5268 14.4021 28 15.6739 28 17V39.52C26.3946 40.5927 25.1766 42.1532 24.5261 43.9712C23.8756 45.7891 23.827 47.7681 24.3875 49.6158C24.948 51.4635 26.0878 53.082 27.6387 54.2322C29.1895 55.3824 31.0692 56.0033 33 56.0033C34.9308 56.0033 36.8105 55.3824 38.3613 54.2322C39.9122 53.082 41.052 51.4635 41.6125 49.6158C42.173 47.7681 42.1244 45.7891 41.4739 43.9712C40.8234 42.1532 39.6054 40.5927 38 39.52Z" stroke="#1E1E1E" stroke-width="4" stroke-linecap="round" stroke-linejoin="round"/>
</g>
<defs>
<clipPath id="clip0_14_346">
<rect width="48" height="48" fill="white" transform="translate(10 10)"/>
</clipPath>
</defs>
</svg>
