<svg width="180" height="36" viewBox="0 0 180 36" fill="none" xmlns="http://www.w3.org/2000/svg">
<path d="M16.0435 6.02131C16.6593 4.12604 19.3406 4.12604 19.9564 6.0213L21.5794 11.0162C21.8548 11.8638 22.6446 12.4376 23.5358 12.4376H28.7878C30.7806 12.4376 31.6091 14.9877 29.9969 16.159L25.748 19.246C25.027 19.7699 24.7253 20.6984 25.0007 21.546L26.6237 26.5409C27.2395 28.4361 25.0703 30.0122 23.458 28.8408L19.2091 25.7538C18.4881 25.23 17.5118 25.23 16.7908 25.7538L12.5419 28.8408C10.9297 30.0122 8.7605 28.4362 9.37631 26.5409L10.9992 21.546C11.2746 20.6984 10.973 19.7699 10.2519 19.246L6.00305 16.159C4.39084 14.9877 5.21941 12.4376 7.21221 12.4376H12.4641C13.3553 12.4376 14.1452 11.8638 14.4206 11.0162L16.0435 6.02131Z" fill="#F29F05"/>
<path d="M52.0435 6.02131C52.6593 4.12604 55.3406 4.12604 55.9564 6.0213L57.5794 11.0162C57.8548 11.8638 58.6446 12.4376 59.5358 12.4376H64.7878C66.7806 12.4376 67.6091 14.9877 65.9969 16.159L61.748 19.246C61.027 19.7699 60.7253 20.6984 61.0007 21.546L62.6237 26.5409C63.2395 28.4361 61.0703 30.0122 59.458 28.8408L55.2091 25.7538C54.4881 25.23 53.5118 25.23 52.7908 25.7538L48.5419 28.8408C46.9297 30.0122 44.7605 28.4362 45.3763 26.5409L46.9992 21.546C47.2746 20.6984 46.973 19.7699 46.2519 19.246L42.0031 16.159C40.3908 14.9877 41.2194 12.4376 43.2122 12.4376H48.4641C49.3553 12.4376 50.1452 11.8638 50.4206 11.0162L52.0435 6.02131Z" fill="#F29F05"/>
<path d="M88.0435 6.02131C88.6593 4.12604 91.3406 4.12604 91.9564 6.0213L93.5794 11.0162C93.8548 11.8638 94.6446 12.4376 95.5358 12.4376H100.788C102.781 12.4376 103.609 14.9877 101.997 16.159L97.748 19.246C97.027 19.7699 96.7253 20.6984 97.0007 21.546L98.6237 26.5409C99.2395 28.4361 97.0703 30.0122 95.458 28.8408L91.2091 25.7538C90.4881 25.23 89.5118 25.23 88.7908 25.7538L84.5419 28.8408C82.9297 30.0122 80.7605 28.4362 81.3763 26.5409L82.9992 21.546C83.2746 20.6984 82.973 19.7699 82.2519 19.246L78.0031 16.159C76.3908 14.9877 77.2194 12.4376 79.2122 12.4376H84.4641C85.3553 12.4376 86.1452 11.8638 86.4206 11.0162L88.0435 6.02131Z" fill="#F29F05"/>
<path d="M124.044 6.02131C124.659 4.12604 127.341 4.12604 127.956 6.0213L129.579 11.0162C129.855 11.8638 130.645 12.4376 131.536 12.4376H136.788C138.781 12.4376 139.609 14.9877 137.997 16.159L133.748 19.246C133.027 19.7699 132.725 20.6984 133.001 21.546L134.624 26.5409C135.239 28.4361 133.07 30.0122 131.458 28.8408L127.209 25.7538C126.488 25.23 125.512 25.23 124.791 25.7538L120.542 28.8408C118.93 30.0122 116.761 28.4362 117.376 26.5409L118.999 21.546C119.275 20.6984 118.973 19.7699 118.252 19.246L114.003 16.159C112.391 14.9877 113.219 12.4376 115.212 12.4376H120.464C121.355 12.4376 122.145 11.8638 122.421 11.0162L124.044 6.02131Z" fill="#F29F05"/>
<path d="M160.044 6.02131C160.659 4.12604 163.341 4.12604 163.956 6.0213L165.579 11.0162C165.855 11.8638 166.645 12.4376 167.536 12.4376H172.788C174.781 12.4376 175.609 14.9877 173.997 16.159L169.748 19.246C169.027 19.7699 168.725 20.6984 169.001 21.546L170.624 26.5409C171.239 28.4361 169.07 30.0122 167.458 28.8408L163.209 25.7538C162.488 25.23 161.512 25.23 160.791 25.7538L156.542 28.8408C154.93 30.0122 152.761 28.4362 153.376 26.5409L154.999 21.546C155.275 20.6984 154.973 19.7699 154.252 19.246L150.003 16.159C148.391 14.9877 149.219 12.4376 151.212 12.4376H156.464C157.355 12.4376 158.145 11.8638 158.421 11.0162L160.044 6.02131Z" fill="#F29F05"/>
</svg>
